<svg width="136" height="43" viewBox="0 0 136 43" fill="none" xmlns="http://www.w3.org/2000/svg">
<path d="M25.6655 9.88976C25.6655 8.70958 25.4331 7.54096 24.9814 6.45061C24.5298 5.36027 23.8678 4.36956 23.0333 3.53504C22.1988 2.70053 21.2081 2.03856 20.1177 1.58692C19.0274 1.13529 17.8588 0.902832 16.6786 0.902832C15.4984 0.902832 14.3298 1.13529 13.2394 1.58692C12.1491 2.03856 11.1584 2.70053 10.3239 3.53504C9.48935 4.36956 8.82737 5.36027 8.37574 6.45061C7.9241 7.54096 7.69165 8.70958 7.69165 9.88976H10.0087C10.0087 9.01385 10.1812 8.14652 10.5164 7.33729C10.8516 6.52806 11.3429 5.79277 11.9622 5.17341C12.5816 4.55405 13.3169 4.06275 14.1261 3.72755C14.9353 3.39236 15.8027 3.21984 16.6786 3.21984C17.5545 3.21984 18.4218 3.39236 19.231 3.72755C20.0403 4.06275 20.7756 4.55405 21.3949 5.17341C22.0143 5.79277 22.5056 6.52806 22.8408 7.33729C23.176 8.14652 23.3485 9.01385 23.3485 9.88976H25.6655Z" fill="#91E200"/>
<rect width="33.3452" height="33.3452" rx="5.98504" transform="matrix(-1 0 0 1 33.3452 9.02246)" fill="#1E90FF"/>
<circle cx="9.14838" cy="13.5334" r="2.4289" fill="white"/>
<circle cx="9.14899" cy="13.533" r="1.45734" fill="#91E200"/>
<circle cx="24.4571" cy="13.5334" r="2.4289" fill="white"/>
<circle cx="24.4534" cy="13.533" r="1.45734" fill="#91E200"/>
<path d="M18.3962 42.1963V21.6523H8.19856C8.07476 22.3258 8.00995 23.02 8.00995 23.7296C8.00995 24.4392 8.07476 25.1334 8.19856 25.8068H13.8262V42.1963C14.5645 42.3463 15.3285 42.4248 16.1112 42.4248C16.8939 42.4248 17.6579 42.3459 18.3962 42.1963Z" fill="white"/>
<path d="M24.4395 21.6523H20.0582V25.8068H24.4395C24.5633 25.1334 24.6281 24.4392 24.6281 23.7296C24.6281 23.02 24.5633 22.3258 24.4395 21.6523Z" fill="#91E200"/>
<path d="M27.9734 0H37.8972L40.1526 2.25541L42.408 4.96189V14.4346H35.6418V6.76622H27.9734V0Z" fill="#91E200"/>
<path d="M57.12 21.0974C56.9733 21.1288 56.816 21.1498 56.6483 21.1603C56.4911 21.1812 56.3077 21.1917 56.098 21.1917C55.8884 21.1917 55.6997 21.1812 55.532 21.1603C55.3747 21.1498 55.2227 21.1288 55.076 21.0974L51.9156 16.6948H50.4375V21.0974C50.3222 21.1288 50.1965 21.1498 50.0602 21.1603C49.9344 21.1812 49.7824 21.1917 49.6042 21.1917C49.426 21.1917 49.274 21.1812 49.1482 21.1603C49.0224 21.1498 48.8966 21.1288 48.7709 21.0974V9.6821H52.859C54.1273 9.6821 55.0865 9.98609 55.7364 10.5941C56.3863 11.1916 56.7112 12.0668 56.7112 13.2199C56.7112 14.2052 56.4492 14.9809 55.925 15.547C55.4114 16.113 54.7039 16.4694 53.8024 16.6162L57.12 21.0974ZM50.4375 15.2168H52.859C54.2636 15.2168 54.9659 14.5511 54.9659 13.2199C54.9659 11.8782 54.2636 11.2073 52.859 11.2073H50.4375V15.2168ZM65.7606 17.5596H60.0844C60.1683 18.3562 60.4041 18.9537 60.792 19.3521C61.1798 19.7399 61.7983 19.9338 62.6473 19.9338C63.0981 19.9338 63.5174 19.8814 63.9052 19.7766C64.3035 19.6613 64.6914 19.4988 65.0688 19.2892C65.1945 19.4149 65.3203 19.6036 65.4461 19.8552C65.5719 20.0858 65.64 20.3007 65.6505 20.4999C64.5813 21.0869 63.5278 21.3804 62.4901 21.3804C61.7773 21.3804 61.1588 21.2756 60.6347 21.0659C60.1106 20.8458 59.6756 20.5418 59.3297 20.154C58.9838 19.7556 58.7269 19.2734 58.5592 18.7074C58.3915 18.1413 58.3076 17.5124 58.3076 16.8206C58.3076 16.1287 58.3863 15.505 58.5435 14.9495C58.7112 14.3834 58.9523 13.9065 59.2668 13.5186C59.5813 13.1203 59.9743 12.8163 60.446 12.6067C60.9177 12.3865 61.4628 12.2765 62.0813 12.2765C62.7731 12.2765 63.3496 12.3865 63.8109 12.6067C64.2826 12.8268 64.6599 13.1465 64.943 13.5658C65.2365 13.9746 65.4461 14.483 65.5719 15.091C65.6977 15.699 65.7606 16.3908 65.7606 17.1665V17.5596ZM62.1285 13.6759C61.7406 13.6759 61.4157 13.7388 61.1536 13.8646C60.902 13.9799 60.6976 14.1528 60.5404 14.3834C60.3832 14.6036 60.2678 14.8761 60.1945 15.201C60.1211 15.5155 60.0792 15.8667 60.0687 16.2545H64.0782C64.0782 15.8457 64.0415 15.4841 63.9681 15.1696C63.9052 14.8447 63.8004 14.5721 63.6536 14.352C63.5069 14.1319 63.3077 13.9641 63.0561 13.8488C62.8046 13.7335 62.4953 13.6759 62.1285 13.6759ZM72.4637 20.2483C72.5161 20.395 72.5423 20.5208 72.5423 20.6257C72.5528 20.7305 72.558 20.8405 72.558 20.9558C72.3484 21.0607 72.0863 21.155 71.7719 21.2389C71.4679 21.3227 71.101 21.3647 70.6712 21.3647C70.3987 21.3647 70.1209 21.328 69.8379 21.2546C69.5549 21.1917 69.2928 21.0712 69.0517 20.893C68.8211 20.7148 68.6272 20.4632 68.4699 20.1382C68.3232 19.8133 68.2498 19.3992 68.2498 18.8961V13.9589H66.929C66.9081 13.8436 66.8871 13.7335 66.8661 13.6287C66.8557 13.5134 66.8504 13.3771 66.8504 13.2199C66.8504 13.0731 66.8557 12.9473 66.8661 12.8425C66.8871 12.7272 66.9081 12.6119 66.929 12.4966H68.2813L68.7687 10.1853C68.8525 10.1643 68.9416 10.1486 69.036 10.1381C69.1303 10.1171 69.2352 10.1066 69.3505 10.1066C69.4658 10.1066 69.5653 10.1171 69.6492 10.1381C69.7435 10.1486 69.8326 10.1643 69.9165 10.1853V12.4966H72.0234C72.0549 12.6119 72.0759 12.7272 72.0863 12.8425C72.1073 12.9473 72.1178 13.0784 72.1178 13.2356C72.1178 13.3824 72.1073 13.5134 72.0863 13.6287C72.0759 13.7335 72.0549 13.8436 72.0234 13.9589H69.9165V18.8332C69.9165 19.242 70.0161 19.5145 70.2152 19.6508C70.4144 19.7871 70.666 19.8552 70.97 19.8552C71.2111 19.8552 71.4207 19.8342 71.5989 19.7923C71.7771 19.7399 71.9553 19.6718 72.1335 19.5879C72.1964 19.6822 72.2541 19.7818 72.3065 19.8867C72.3589 19.981 72.4113 20.1015 72.4637 20.2483ZM77.0911 12.2765C77.5628 12.2765 78.003 12.3341 78.4119 12.4494C78.8312 12.5543 79.1928 12.7377 79.4968 12.9998C79.8112 13.2513 80.0523 13.5973 80.2201 14.0375C80.3983 14.4673 80.4874 15.0071 80.4874 15.657V21.1131C80.2987 21.176 80.0681 21.2074 79.7955 21.2074C79.523 21.2074 79.2924 21.176 79.1037 21.1131L78.9779 19.8395C78.6739 20.3007 78.2913 20.6728 77.8301 20.9558C77.3793 21.2389 76.8552 21.3804 76.2577 21.3804C75.4401 21.3804 74.7797 21.1498 74.2766 20.6885C73.7734 20.2168 73.5219 19.5198 73.5219 18.5973C73.5219 17.7483 73.7944 17.0931 74.3395 16.6319C74.895 16.1707 75.6498 15.9401 76.6037 15.9401C77.002 15.9401 77.3793 15.9715 77.7357 16.0344C78.1026 16.0868 78.4643 16.1707 78.8207 16.286V15.7985C78.8207 15.0962 78.6687 14.5878 78.3647 14.2734C78.0607 13.9484 77.5838 13.7859 76.9338 13.7859C76.5355 13.7859 76.132 13.8541 75.7231 13.9903C75.3248 14.1161 74.9422 14.2838 74.5753 14.4935C74.4915 14.4096 74.4128 14.3258 74.3395 14.2419C74.2766 14.1581 74.2137 14.048 74.1508 13.9117C74.004 13.6706 73.9149 13.4453 73.8835 13.2356C74.2923 12.9526 74.785 12.722 75.3615 12.5438C75.9485 12.3656 76.525 12.2765 77.0911 12.2765ZM76.6194 20.0124C77.2064 20.0124 77.7043 19.8342 78.1131 19.4778C78.5324 19.1214 78.7683 18.5659 78.8207 17.8112V17.4181C78.4852 17.3132 78.1655 17.2346 77.8615 17.1822C77.5575 17.1193 77.2483 17.0879 76.9338 17.0879C76.3468 17.0879 75.9013 17.2189 75.5974 17.481C75.3038 17.7325 75.1571 18.0627 75.1571 18.4715C75.1571 18.9432 75.2724 19.3206 75.503 19.6036C75.7441 19.8762 76.1162 20.0124 76.6194 20.0124ZM84.6459 9.38336C84.7087 9.60349 84.7402 9.86554 84.7402 10.1695C84.7402 10.4735 84.7087 10.7408 84.6459 10.9714C84.5201 11.0029 84.389 11.0291 84.2528 11.05C84.1165 11.0605 83.9593 11.0658 83.7811 11.0658C83.4351 11.0658 83.1469 11.0343 82.9163 10.9714C82.8534 10.7408 82.8219 10.4735 82.8219 10.1695C82.8219 9.86554 82.8534 9.60349 82.9163 9.38336C83.1469 9.32046 83.4351 9.28902 83.7811 9.28902C83.9593 9.28902 84.1165 9.2995 84.2528 9.32046C84.389 9.33095 84.5201 9.35191 84.6459 9.38336ZM82.932 12.5438C83.0473 12.5228 83.1678 12.5071 83.2936 12.4966C83.4299 12.4756 83.5871 12.4652 83.7653 12.4652C83.9435 12.4652 84.0955 12.4756 84.2213 12.4966C84.3576 12.5071 84.4834 12.5228 84.5987 12.5438V21.0974C84.4834 21.1288 84.3576 21.1498 84.2213 21.1603C84.0955 21.1812 83.9435 21.1917 83.7653 21.1917C83.4404 21.1917 83.1626 21.1603 82.932 21.0974V12.5438ZM87.9262 8.66008C88.1044 8.66008 88.2564 8.67056 88.3821 8.69152C88.5184 8.70201 88.6442 8.72297 88.7595 8.75442V21.1288C88.5708 21.1917 88.3402 21.2231 88.0677 21.2231C87.7951 21.2231 87.5645 21.1498 87.3758 21.003C87.1872 20.8563 87.0928 20.6414 87.0928 20.3584V8.75442C87.3234 8.69152 87.6012 8.66008 87.9262 8.66008ZM99.2075 9.6821C99.8679 9.6821 100.444 9.7712 100.937 9.9494C101.43 10.1276 101.844 10.3844 102.179 10.7199C102.515 11.0448 102.766 11.4379 102.934 11.8991C103.102 12.3603 103.186 12.874 103.186 13.44C103.186 14.5931 102.85 15.505 102.179 16.1759C101.519 16.8363 100.528 17.1665 99.2075 17.1665H97.132V21.0974C97.0167 21.1288 96.8909 21.1498 96.7547 21.1603C96.6289 21.1812 96.4769 21.1917 96.2987 21.1917C96.1205 21.1917 95.9685 21.1812 95.8427 21.1603C95.7169 21.1498 95.5911 21.1288 95.4653 21.0974V9.6821H99.2075ZM98.9874 15.6413C99.8365 15.6413 100.455 15.4788 100.843 15.1539C101.231 14.8184 101.425 14.2472 101.425 13.44C101.425 12.6748 101.231 12.114 100.843 11.7576C100.455 11.3907 99.8365 11.2073 98.9874 11.2073H97.132V15.6413H98.9874ZM111.033 12.4652C111.212 12.4652 111.364 12.4756 111.489 12.4966C111.626 12.5071 111.751 12.5228 111.867 12.5438V21.0974C111.678 21.1603 111.447 21.1917 111.175 21.1917C110.902 21.1917 110.667 21.1603 110.467 21.0974L110.342 19.808C110.038 20.3426 109.66 20.741 109.21 21.003C108.769 21.2546 108.287 21.3804 107.763 21.3804C106.841 21.3804 106.143 21.0974 105.672 20.5313C105.211 19.9653 104.98 19.1424 104.98 18.0627V12.5438C105.095 12.5228 105.216 12.5071 105.342 12.4966C105.478 12.4756 105.635 12.4652 105.813 12.4652C105.991 12.4652 106.143 12.4756 106.269 12.4966C106.405 12.5071 106.531 12.5228 106.647 12.5438V17.6382C106.647 18.3824 106.762 18.9328 106.993 19.2892C107.234 19.6351 107.621 19.808 108.156 19.808C108.46 19.808 108.738 19.7504 108.989 19.6351C109.241 19.5198 109.456 19.3363 109.634 19.0848C109.812 18.8332 109.949 18.5082 110.043 18.1099C110.148 17.7011 110.2 17.2032 110.2 16.6162V12.5438C110.326 12.5228 110.452 12.5071 110.577 12.4966C110.703 12.4756 110.855 12.4652 111.033 12.4652ZM115.197 8.66008C115.375 8.66008 115.527 8.67056 115.653 8.69152C115.789 8.70201 115.915 8.72297 116.03 8.75442V21.1288C115.841 21.1917 115.611 21.2231 115.338 21.2231C115.066 21.2231 114.835 21.1498 114.646 21.003C114.458 20.8563 114.363 20.6414 114.363 20.3584V8.75442C114.594 8.69152 114.872 8.66008 115.197 8.66008ZM121.701 16.0501C122.214 16.1549 122.654 16.2807 123.021 16.4275C123.388 16.5638 123.687 16.7367 123.918 16.9464C124.148 17.156 124.316 17.4076 124.421 17.7011C124.536 17.9841 124.594 18.3195 124.594 18.7074C124.594 19.546 124.305 20.2011 123.729 20.6728C123.152 21.1445 122.356 21.3804 121.339 21.3804C120.731 21.3804 120.16 21.3175 119.625 21.1917C119.091 21.0764 118.566 20.8982 118.053 20.6571C118.063 20.5418 118.079 20.4317 118.1 20.3269C118.121 20.2116 118.163 20.0806 118.226 19.9338C118.341 19.6613 118.462 19.4464 118.587 19.2892C119.08 19.4988 119.531 19.656 119.94 19.7609C120.348 19.8657 120.783 19.9181 121.245 19.9181C121.811 19.9181 122.225 19.8185 122.487 19.6194C122.759 19.4097 122.896 19.1372 122.896 18.8017C122.896 18.613 122.869 18.4558 122.817 18.33C122.765 18.1938 122.665 18.0732 122.518 17.9684C122.382 17.8636 122.188 17.7745 121.936 17.7011C121.685 17.6172 121.36 17.5386 120.962 17.4652C119.955 17.2661 119.237 16.9621 118.807 16.5533C118.378 16.1445 118.163 15.5837 118.163 14.8709C118.163 14.0532 118.435 13.4138 118.98 12.9526C119.536 12.4914 120.322 12.2608 121.339 12.2608C121.915 12.2608 122.434 12.3237 122.896 12.4494C123.357 12.5647 123.797 12.722 124.216 12.9211C124.216 13.0364 124.206 13.1465 124.185 13.2513C124.164 13.3562 124.127 13.4819 124.075 13.6287C124.022 13.765 123.97 13.8855 123.918 13.9903C123.865 14.0847 123.802 14.1738 123.729 14.2576C123.456 14.1319 123.116 14.0113 122.707 13.896C122.309 13.7807 121.889 13.723 121.449 13.723C120.914 13.723 120.5 13.8121 120.207 13.9903C119.924 14.1581 119.782 14.4254 119.782 14.7922C119.782 14.9809 119.814 15.1434 119.877 15.2797C119.94 15.4055 120.044 15.5155 120.191 15.6099C120.348 15.6937 120.548 15.7723 120.789 15.8457C121.03 15.9086 121.334 15.9767 121.701 16.0501ZM133.537 17.5596H127.861C127.945 18.3562 128.181 18.9537 128.569 19.3521C128.957 19.7399 129.575 19.9338 130.424 19.9338C130.875 19.9338 131.294 19.8814 131.682 19.7766C132.08 19.6613 132.468 19.4988 132.846 19.2892C132.971 19.4149 133.097 19.6036 133.223 19.8552C133.349 20.0858 133.417 20.3007 133.427 20.4999C132.358 21.0869 131.305 21.3804 130.267 21.3804C129.554 21.3804 128.936 21.2756 128.412 21.0659C127.887 20.8458 127.452 20.5418 127.107 20.154C126.761 19.7556 126.504 19.2734 126.336 18.7074C126.168 18.1413 126.085 17.5124 126.085 16.8206C126.085 16.1287 126.163 15.505 126.32 14.9495C126.488 14.3834 126.729 13.9065 127.044 13.5186C127.358 13.1203 127.751 12.8163 128.223 12.6067C128.695 12.3865 129.24 12.2765 129.858 12.2765C130.55 12.2765 131.127 12.3865 131.588 12.6067C132.059 12.8268 132.437 13.1465 132.72 13.5658C133.013 13.9746 133.223 14.483 133.349 15.091C133.475 15.699 133.537 16.3908 133.537 17.1665V17.5596ZM129.905 13.6759C129.517 13.6759 129.193 13.7388 128.93 13.8646C128.679 13.9799 128.474 14.1528 128.317 14.3834C128.16 14.6036 128.045 14.8761 127.971 15.201C127.898 15.5155 127.856 15.8667 127.846 16.2545H131.855C131.855 15.8457 131.818 15.4841 131.745 15.1696C131.682 14.8447 131.577 14.5721 131.43 14.352C131.284 14.1319 131.085 13.9641 130.833 13.8488C130.581 13.7335 130.272 13.6759 129.905 13.6759Z" fill="white"/>
<path d="M53.6342 33.4473C54.4621 33.6875 54.8761 34.2436 54.8761 35.1158C54.8761 36.4683 54.0482 37.1445 52.3923 37.1445H49.8896V30.2336H52.4113C53.8649 30.2336 54.5917 30.815 54.5917 31.9779C54.5917 32.3255 54.5127 32.6257 54.3547 32.8785C54.1967 33.125 53.9565 33.3146 53.6342 33.4473ZM50.9229 31.1531V33.144H52.3734C53.1444 33.144 53.5299 32.7964 53.5299 32.1012C53.5299 31.7788 53.4288 31.5418 53.2266 31.3901C53.0306 31.2321 52.721 31.1531 52.2975 31.1531H50.9229ZM52.3639 36.225C53.3245 36.225 53.8048 35.8394 53.8048 35.0684C53.8048 34.6892 53.6848 34.408 53.4446 34.2247C53.2044 34.0414 52.8316 33.9498 52.326 33.9498H50.9229V36.225H52.3639ZM59.7296 31.9116C59.837 31.9116 59.9287 31.9179 60.0045 31.9305C60.0867 31.9368 60.1625 31.9463 60.232 31.959V37.0592C60.232 37.4763 60.172 37.8271 60.0519 38.1115C59.9318 38.4022 59.7675 38.6361 59.5589 38.813C59.3504 38.9963 59.1071 39.129 58.829 39.2112C58.5572 39.2933 58.2665 39.3344 57.9568 39.3344C57.565 39.3344 57.2205 39.3028 56.9235 39.2396C56.6264 39.1827 56.3294 39.0816 56.0324 38.9363C56.0324 38.8667 56.0355 38.7972 56.0418 38.7277C56.0482 38.6645 56.0671 38.5887 56.0987 38.5002C56.1303 38.4117 56.1619 38.3359 56.1935 38.2727C56.2314 38.2095 56.2694 38.1494 56.3073 38.0925C56.5854 38.2189 56.835 38.3106 57.0562 38.3675C57.2774 38.4307 57.5112 38.4623 57.7577 38.4623C57.9726 38.4623 58.1717 38.437 58.355 38.3864C58.5382 38.3359 58.6931 38.2537 58.8195 38.1399C58.9459 38.0262 59.0439 37.8777 59.1134 37.6944C59.1892 37.5111 59.2271 37.2899 59.2271 37.0308V36.3103C59.0439 36.5631 58.8258 36.7495 58.573 36.8696C58.3202 36.9897 58.0484 37.0497 57.7577 37.0497C57.2016 37.0497 56.7813 36.8917 56.4969 36.5757C56.2188 36.2597 56.0798 35.751 56.0798 35.0494V31.959H56.0892C56.1588 31.9463 56.2314 31.9368 56.3073 31.9305C56.3894 31.9179 56.4842 31.9116 56.5917 31.9116C56.6991 31.9116 56.7908 31.9179 56.8666 31.9305C56.9488 31.9368 57.0246 31.9463 57.0941 31.959H57.0846V34.7935C57.0846 35.2422 57.1542 35.574 57.2932 35.7889C57.4386 35.9974 57.6724 36.1017 57.9947 36.1017C58.178 36.1017 58.3455 36.0733 58.4972 36.0164C58.6488 35.9595 58.7784 35.8647 58.8859 35.732C58.9933 35.5993 59.0755 35.4255 59.1323 35.2106C59.1955 34.9957 59.2271 34.7303 59.2271 34.4143V31.959C59.303 31.9463 59.3788 31.9368 59.4547 31.9305C59.5305 31.9179 59.6221 31.9116 59.7296 31.9116Z" fill="white"/>
<g clip-path="url(#clip0_1141_8015)">
<path d="M72.5872 28.4863H70.8333V30.1495H72.5872C72.6368 29.8799 72.6627 29.602 72.6627 29.3179C72.6627 29.0338 72.6368 28.7559 72.5872 28.4863Z" fill="#91E200"/>
<path d="M101.269 36.7145V32.983C101.269 31.3905 100.623 30.6489 99.2348 30.6489C98.517 30.6489 97.935 30.9711 97.5429 31.583C97.2518 30.9631 96.6572 30.6489 95.7731 30.6489C95.1195 30.6489 94.5622 30.9297 94.1823 31.4449C94.1555 31.2892 94.104 31.0429 94.0596 30.9082C94.0433 30.859 94.0268 30.8262 94.0143 30.8054C93.7752 30.7574 93.5278 30.7321 93.2746 30.7321C93.0213 30.7321 92.7776 30.757 92.5401 30.8043V36.7145C92.8305 36.7723 93.1307 36.8026 93.4379 36.8026C93.7451 36.8026 94.0453 36.7722 94.3356 36.7145V33.634C94.3356 32.6409 94.6295 32.2171 95.3186 32.2171C95.8371 32.2171 96.007 32.5147 96.007 33.3963V36.7145C96.2973 36.7722 96.5974 36.8026 96.9047 36.8026C97.2121 36.8026 97.5123 36.7723 97.8025 36.7145V33.634C97.8025 32.6409 98.0964 32.2171 98.7853 32.2171C99.3038 32.2171 99.4736 32.5147 99.4736 33.3963V36.7143C99.7639 36.772 100.064 36.8024 100.371 36.8024C100.679 36.8024 100.979 36.7722 101.269 36.7143" fill="#0099FF"/>
<path d="M77.4504 28.3703V35.8046C77.4504 36.3558 77.8971 36.8025 78.4481 36.8025C78.734 36.8025 79.0122 36.7704 79.2797 36.7097V28.3703C78.9841 28.3104 78.6783 28.2788 78.3649 28.2788C78.0516 28.2788 77.7457 28.3104 77.4502 28.3703" fill="#0099FF"/>
<path d="M70.1681 36.7106V28.4863H66.0858C66.0362 28.7559 66.0103 29.0338 66.0103 29.3179C66.0103 29.602 66.0362 29.8799 66.0858 30.1495H68.3387V36.7106C68.6342 36.7707 68.9401 36.8021 69.2534 36.8021C69.5667 36.8021 69.8726 36.7705 70.1681 36.7106Z" fill="#0099FF"/>
<path d="M74.9368 33.048C74.8901 32.3924 74.5255 32.0041 73.9497 32.0041C73.2863 32.0041 72.9143 32.3458 72.8145 33.048H74.9368ZM74.1974 36.8856C73.1913 36.8856 72.405 36.619 71.8605 36.0933C71.3111 35.5629 71.0326 34.7923 71.0326 33.8034C71.0326 32.8915 71.3023 32.11 71.8127 31.5434C72.3398 30.9583 73.0859 30.6489 73.9705 30.6489C75.5613 30.6489 76.6301 31.7923 76.6301 33.4941C76.6301 33.7308 76.6234 34.0697 76.5652 34.2791L76.5488 34.3386H72.8013C72.8855 35.0794 73.3999 35.4548 74.3316 35.4548C74.8164 35.4548 75.3456 35.36 75.8622 35.1809L75.9279 35.1581L75.9607 35.2193C76.0488 35.3848 76.1217 35.5651 76.1834 35.7705C76.2412 35.9734 76.2762 36.1814 76.2999 36.4676L76.3051 36.5297L76.2466 36.5508C75.6329 36.773 74.9435 36.8858 74.1976 36.8858" fill="#0099FF"/>
<path d="M82.0738 36.7108V28.3703C81.7782 28.3102 81.4724 28.2788 81.159 28.2788C80.8457 28.2788 80.5398 28.3104 80.2443 28.3703V36.7108C80.5398 36.7709 80.8457 36.8023 81.159 36.8023C81.4724 36.8023 81.7782 36.7709 82.0738 36.7108Z" fill="#0099FF"/>
<path d="M88.8359 32.0042C88.2826 32.0042 87.8324 32.4465 87.8324 32.9902V34.5344C87.8324 35.0837 88.2826 35.5306 88.8359 35.5306C89.3893 35.5306 89.8498 35.093 89.8498 34.5344V32.9902C89.8498 32.4465 89.3949 32.0042 88.8359 32.0042ZM88.8359 36.8858C87.0457 36.8858 85.9336 35.6948 85.9336 33.7777C85.9336 32.8531 86.1967 32.0723 86.6946 31.5193C87.2074 30.95 87.9478 30.6489 88.8359 30.6489C89.7241 30.6489 90.4603 30.9485 90.9733 31.5153C91.4739 32.0683 91.7385 32.8506 91.7385 33.7778C91.7385 35.6949 90.6263 36.8859 88.8361 36.8859" fill="#0099FF"/>
<path d="M84.2282 33.5563L85.7786 30.8008C85.4752 30.7554 85.1649 30.7319 84.8489 30.7319C84.5044 30.7319 84.1665 30.7599 83.8372 30.8136L82.3473 33.6297L84.0837 36.7193C84.416 36.774 84.7572 36.8025 85.105 36.8025C85.4227 36.8025 85.7348 36.7787 86.0399 36.7328L84.2282 33.5563Z" fill="#0099FF"/>
</g>
<defs>
<clipPath id="clip0_1141_8015">
<rect width="45.2545" height="18.3114" fill="white" transform="translate(61.0123 23.4888)"/>
</clipPath>
</defs>
</svg>
