<svg width="129" height="52" viewBox="0 0 129 52" fill="none" xmlns="http://www.w3.org/2000/svg">
<g clip-path="url(#clip0_8013_3061)">
<path d="M32.87 14.1925H27.8892V18.9155H32.87C33.0108 18.1499 33.0844 17.3607 33.0844 16.554C33.0844 15.7473 33.0108 14.9581 32.87 14.1925Z" fill="#91E200"/>
<path d="M114.32 37.5571V26.9606C114.32 22.4384 112.484 20.3324 108.543 20.3324C106.504 20.3324 104.852 21.2472 103.738 22.9848C102.911 21.2246 101.223 20.3324 98.7121 20.3324C96.856 20.3324 95.2733 21.1296 94.1946 22.5928C94.1186 22.1507 93.9721 21.4513 93.846 21.0687C93.7998 20.9289 93.753 20.8359 93.7176 20.7768C93.0384 20.6403 92.3361 20.5685 91.6168 20.5685C90.8975 20.5685 90.2056 20.6394 89.5311 20.7735V37.5571C90.3558 37.7215 91.2083 37.8074 92.0806 37.8074C92.9529 37.8074 93.8054 37.721 94.6301 37.5571V28.8092C94.6301 25.9891 95.4646 24.7857 97.4213 24.7857C98.894 24.7857 99.3762 25.6306 99.3762 28.1343V37.5571C100.201 37.721 101.053 37.8074 101.926 37.8074C102.798 37.8074 103.651 37.7215 104.475 37.5571V28.8092C104.475 25.9891 105.31 24.7857 107.266 24.7857C108.739 24.7857 109.221 25.6306 109.221 28.1343V37.5566C110.045 37.7205 110.897 37.8069 111.77 37.8069C112.643 37.8069 113.495 37.721 114.32 37.5566" fill="#0099FF"/>
<path d="M46.68 13.8619V34.9737C46.68 36.5388 47.9486 37.8074 49.5134 37.8074C50.3252 37.8074 51.1154 37.7163 51.8748 37.5439V13.8619C51.0356 13.6919 50.167 13.6022 49.2772 13.6022C48.3874 13.6022 47.5188 13.6919 46.6796 13.8619" fill="#0099FF"/>
<path d="M26 37.5476V14.1925H14.4069C14.2662 14.9581 14.1925 15.7473 14.1925 16.554C14.1925 17.3607 14.2662 18.1499 14.4069 18.9155H20.8047V37.5476C21.6439 37.7181 22.5125 37.8074 23.4023 37.8074C24.2921 37.8074 25.1607 37.7177 26 37.5476Z" fill="#0099FF"/>
<path d="M39.5417 27.1458C39.4089 25.284 38.3737 24.1812 36.7386 24.1812C34.8546 24.1812 33.798 25.1517 33.5147 27.1458H39.5417ZM37.4418 38.0436C34.5849 38.0436 32.3519 37.2865 30.8056 35.7936C29.2456 34.2874 28.4545 32.0992 28.4545 29.291C28.4545 26.7013 29.2205 24.482 30.67 22.8729C32.1667 21.2114 34.2855 20.3329 36.7976 20.3329C41.3151 20.3329 44.3501 23.5799 44.3501 28.4125C44.3501 29.0846 44.3312 30.0471 44.1659 30.6417L44.1192 30.8108H33.4774C33.7163 32.9144 35.1772 33.9804 37.823 33.9804C39.1997 33.9804 40.7026 33.7112 42.1695 33.2025L42.3561 33.1378L42.4491 33.3116C42.6994 33.7816 42.9063 34.2935 43.0815 34.8768C43.2459 35.453 43.3451 36.0439 43.4126 36.8567L43.4273 37.0329L43.261 37.0928C41.5182 37.7238 39.5606 38.0441 37.4423 38.0441" fill="#0099FF"/>
<path d="M59.8094 37.5477V13.8624C58.9701 13.6919 58.1016 13.6027 57.2118 13.6027C56.322 13.6027 55.4534 13.6924 54.6141 13.8624V37.5477C55.4534 37.7182 56.322 37.8075 57.2118 37.8075C58.1016 37.8075 58.9701 37.7182 59.8094 37.5477Z" fill="#0099FF"/>
<path d="M79.0121 24.1812C77.4408 24.1812 76.1622 25.437 76.1622 26.9809V31.3662C76.1622 32.9262 77.4408 34.1953 79.0121 34.1953C80.5834 34.1953 81.8912 32.9527 81.8912 31.3662V26.9809C81.8912 25.437 80.5995 24.1812 79.0121 24.1812ZM79.0121 38.0436C73.9283 38.0436 70.77 34.6614 70.77 29.2173C70.77 26.5918 71.5172 24.3743 72.9313 22.8039C74.3873 21.1873 76.49 20.3324 79.0121 20.3324C81.5342 20.3324 83.625 21.183 85.0816 22.7926C86.5032 24.363 87.2546 26.5847 87.2546 29.2177C87.2546 34.6619 84.0964 38.044 79.0126 38.044" fill="#0099FF"/>
<path d="M65.927 28.5892L70.3298 20.7641C69.4683 20.6352 68.587 20.5686 67.6896 20.5686C66.7115 20.5686 65.7518 20.6479 64.8167 20.8005L60.5858 28.7974L65.5166 37.5713C66.4603 37.7267 67.4294 37.8075 68.417 37.8075C69.3191 37.8075 70.2056 37.7399 71.0718 37.6096L65.927 28.5892Z" fill="#0099FF"/>
</g>
<defs>
<clipPath id="clip0_8013_3061">
<rect width="128.512" height="52" fill="white"/>
</clipPath>
</defs>
</svg>
